<svg aria-hidden="true" style="position: absolute; width: 0; height: 0; overflow: hidden;" version="1.1" xmlns="http://www.w3.org/2000/svg" xmlns:xlink="http://www.w3.org/1999/xlink">
<defs>
<symbol id="icon-spinner" viewBox="0 0 16 16">
<path d="M15 9h-2c-0.553 0-1-0.447-1-1s0.447-1 1-1h2c0.553 0 1 0.447 1 1s-0.447 1-1 1zM12.242 5.172c-0.391 0.391-1.023 0.391-1.414 0s-0.391-1.023 0-1.414l1.414-1.414c0.391-0.391 1.023-0.391 1.414 0s0.391 1.023 0 1.414l-1.414 1.414zM8 16c-0.553 0-1-0.447-1-1v-2c0-0.553 0.447-1 1-1s1 0.447 1 1v2c0 0.553-0.447 1-1 1zM8 4c-0.553 0-1-0.447-1-1v-2c0-0.553 0.447-1 1-1s1 0.447 1 1v2c0 0.553-0.447 1-1 1zM3.758 13.656c-0.391 0.391-1.023 0.391-1.414 0s-0.391-1.023 0-1.414l1.414-1.414c0.391-0.391 1.023-0.391 1.414 0s0.391 1.023 0 1.414l-1.414 1.414zM3.758 5.172l-1.414-1.414c-0.391-0.391-0.391-1.023 0-1.414s1.023-0.391 1.414 0l1.414 1.414c0.391 0.391 0.391 1.023 0 1.414s-1.023 0.391-1.414 0zM4 8c0 0.553-0.447 1-1 1h-2c-0.553 0-1-0.447-1-1s0.447-1 1-1h2c0.553 0 1 0.447 1 1zM12.242 10.828l1.414 1.414c0.391 0.391 0.391 1.024 0 1.414s-1.023 0.391-1.414 0l-1.414-1.414c-0.391-0.391-0.391-1.023 0-1.414s1.023-0.391 1.414 0z"></path>
</symbol>
<symbol id="icon-cloud-upload" viewBox="0 0 30 28">
<path d="M20 13.5c0-0.125-0.047-0.266-0.141-0.359l-5.5-5.5c-0.094-0.094-0.219-0.141-0.359-0.141-0.125 0-0.266 0.047-0.359 0.141l-5.484 5.484c-0.094 0.109-0.156 0.234-0.156 0.375 0 0.281 0.219 0.5 0.5 0.5h3.5v5.5c0 0.266 0.234 0.5 0.5 0.5h3c0.266 0 0.5-0.234 0.5-0.5v-5.5h3.5c0.281 0 0.5-0.234 0.5-0.5zM30 18c0 3.313-2.688 6-6 6h-17c-3.859 0-7-3.141-7-7 0-2.719 1.578-5.187 4.031-6.328-0.016-0.234-0.031-0.453-0.031-0.672 0-4.422 3.578-8 8-8 3.25 0 6.172 1.969 7.406 4.969 0.719-0.625 1.641-0.969 2.594-0.969 2.203 0 4 1.797 4 4 0 0.766-0.219 1.516-0.641 2.156 2.719 0.641 4.641 3.063 4.641 5.844z"></path>
</symbol>
</defs>
</svg>
